<svg width="236" height="236" viewBox="0 0 236 236" fill="none" xmlns="http://www.w3.org/2000/svg">
<defs>
  <clipPath id="cg"><rect width="236" height="236" fill="white"/></clipPath>

  <!-- Edge gradients: back (dark) and front -->
  <linearGradient id="git_edge_back" x1="60" y1="40" x2="180" y2="200" gradientUnits="userSpaceOnUse">
    <stop offset="0%" stop-color="#9a3412"/>
    <stop offset="100%" stop-color="#7c2d12"/>
  </linearGradient>
  <linearGradient id="git_edge" x1="60" y1="40" x2="180" y2="200" gradientUnits="userSpaceOnUse">
    <stop offset="0%"  stop-color="#fb923c"/>
    <stop offset="55%" stop-color="#f97316"/>
    <stop offset="100%" stop-color="#c2410c"/>
  </linearGradient>

  <!-- Node fills: back (dark), front (radial volume) -->
  <linearGradient id="git_node_back" x1="0" y1="0" x2="0" y2="1">
    <stop offset="0%" stop-color="#9a3412"/>
    <stop offset="100%" stop-color="#7c2d12"/>
  </linearGradient>
  <radialGradient id="git_node" cx="0.36" cy="0.30" r="0.9">
    <stop offset="0%"  stop-color="#fed7aa"/>
    <stop offset="40%" stop-color="#f97316"/>
    <stop offset="100%" stop-color="#9a3412"/>
  </radialGradient>
  <!-- Subtle top sheen, clipped to each node (not the whole canvas) -->
  <linearGradient id="git_sheen" x1="0" y1="0" x2="0" y2="1">
    <stop offset="0%"  stop-color="white" stop-opacity="0.45"/>
    <stop offset="55%" stop-color="white" stop-opacity="0"/>
  </linearGradient>

  <filter id="git_shadow" x="22" y="20" width="196" height="206" filterUnits="userSpaceOnUse" color-interpolation-filters="sRGB">
    <feFlood flood-opacity="0" result="bg"/>
    <feColorMatrix in="SourceAlpha" type="matrix" values="0 0 0 0 0 0 0 0 0 0 0 0 0 0 0 0 0 0 127 0" result="hardAlpha"/>
    <feOffset dy="3"/>
    <feGaussianBlur stdDeviation="5"/>
    <feComposite in2="hardAlpha" operator="out"/>
    <feColorMatrix type="matrix" values="0 0 0 0 0.32 0 0 0 0 0.12 0 0 0 0 0.02 0 0 0 0.45 0"/>
    <feBlend mode="normal" in2="bg" result="e1"/>
    <feBlend mode="normal" in="SourceGraphic" in2="e1"/>
  </filter>

  <clipPath id="n_top"><circle cx="70" cy="58" r="28"/></clipPath>
  <clipPath id="n_bot"><circle cx="70" cy="174" r="28"/></clipPath>
  <clipPath id="n_rgt"><circle cx="166" cy="82" r="28"/></clipPath>
</defs>

<g clip-path="url(#cg)">
  <g filter="url(#git_shadow)">
    <!-- EDGES - depth: dark back layer offset +2px, then front gradient -->
    <g>
      <path d="M70 174 L70 58" stroke="url(#git_edge_back)" stroke-width="16" stroke-linecap="round" transform="translate(0,2)"/>
      <path d="M70 118 C 70 84, 110 84, 166 84" stroke="url(#git_edge_back)" stroke-width="16" fill="none" stroke-linecap="round" transform="translate(0,2)"/>
      <path d="M70 174 L70 58" stroke="url(#git_edge)" stroke-width="15" stroke-linecap="round"/>
      <path d="M70 118 C 70 84, 110 84, 166 84" stroke="url(#git_edge)" stroke-width="15" fill="none" stroke-linecap="round"/>
    </g>

    <!-- NODES - each: dark back disc (offset down) → front volume → top sheen → inner ring -->
    <!-- top -->
    <circle cx="70" cy="61" r="28" fill="url(#git_node_back)"/>
    <circle cx="70" cy="58" r="28" fill="url(#git_node)"/>
    <rect x="42" y="30" width="56" height="34" fill="url(#git_sheen)" clip-path="url(#n_top)"/>
    <circle cx="70" cy="58" r="11" fill="#fff7ed" opacity="0.9"/>
    <!-- bottom -->
    <circle cx="70" cy="177" r="28" fill="url(#git_node_back)"/>
    <circle cx="70" cy="174" r="28" fill="url(#git_node)"/>
    <rect x="42" y="146" width="56" height="34" fill="url(#git_sheen)" clip-path="url(#n_bot)"/>
    <circle cx="70" cy="174" r="11" fill="#fff7ed" opacity="0.9"/>
    <!-- right -->
    <circle cx="166" cy="85" r="28" fill="url(#git_node_back)"/>
    <circle cx="166" cy="82" r="28" fill="url(#git_node)"/>
    <rect x="138" y="54" width="56" height="34" fill="url(#git_sheen)" clip-path="url(#n_rgt)"/>
    <circle cx="166" cy="82" r="11" fill="#fff7ed" opacity="0.9"/>
  </g>
</g>
</svg>
